<svg width="608" height="155" viewBox="0 0 608 155" fill="none" xmlns="http://www.w3.org/2000/svg">
<g filter="url(#filter0_d)">
<path d="M22.6068 38.6009C22.4353 33.6903 26.2047 29.4998 31.0999 29.076C225.997 12.2009 337.032 5.01522 511.305 12.0967C516.183 12.2949 520.129 16.225 520.299 21.1043V21.1043C520.48 26.265 516.442 30.5946 511.282 30.7748L32.1566 47.5062C27.0604 47.6842 22.7848 43.6971 22.6068 38.6009V38.6009Z" fill="#D97706"/>
<rect x="67.5654" y="65.2813" width="523" height="18" rx="9" transform="rotate(-2 67.5654 65.2813)" fill="#DB7F15"/>
<rect x="23.9062" y="75.8114" width="523" height="18" rx="9" transform="rotate(-2 23.9062 75.8114)" fill="#DB7F15"/>
<rect x="64.5101" y="92.4044" width="523" height="18" rx="9" transform="rotate(-2 64.5101 92.4044)" fill="#D97706"/>
<rect x="16.8883" y="104.074" width="575" height="18" rx="9" transform="rotate(-2 16.8883 104.074)" fill="#D97706" fill-opacity="0.94"/>
<path d="M7.63444 125.613C7.45704 120.533 11.4314 116.271 16.5113 116.094L557.78 97.1925C562.857 97.0152 567.116 100.987 567.293 106.064V106.064C567.465 110.983 563.733 115.166 558.826 115.554L284.21 137.264L16.7372 134.495C11.8164 134.444 7.80618 130.531 7.63444 125.613V125.613Z" fill="#D97706"/>
<path d="M28.5542 65.643C28.3807 60.6755 32.2671 56.5078 37.2346 56.3344L593.895 36.8954C598.863 36.7219 603.03 40.6082 603.204 45.5758V45.5758C603.377 50.5433 599.491 54.7109 594.524 54.8844L37.8628 74.3234C32.8953 74.4969 28.7277 70.6105 28.5542 65.643V65.643Z" fill="#D97706"/>
<rect x="4.94006" y="48.4566" width="464" height="18" rx="9" transform="rotate(-2 4.94006 48.4566)" fill="#DB7F15"/>
<path d="M141.401 81.572C141.634 81.5557 141.795 82.1788 141.884 83.4413C141.972 84.7039 142.079 85.5657 142.205 86.0267L118.353 90.655L120.704 106.138L115.003 106.255C114.709 102.046 113.905 97.2626 112.59 91.9038L103.717 96.0485C103.109 96.091 102.57 95.7762 102.1 95.1042C101.267 93.9408 100.816 92.8681 100.748 91.8861L111.144 87.3529C109.647 79.3755 108.723 72.885 108.373 67.8816C108.02 62.8315 108.166 58.8741 108.811 56.0096C109.457 53.1451 110.542 51.1897 112.066 50.1433C113.634 49.0469 115.33 48.4349 117.154 48.3074C118.978 48.1798 120.852 48.4481 122.778 49.1123C124.751 49.7732 126.645 50.651 128.46 51.7458C130.275 52.8406 131.845 54.117 133.169 55.5751C134.489 56.9864 135.2 58.4169 135.301 59.8665C135.38 60.9888 135.318 61.7919 135.117 62.2758C133.064 59.788 130.632 57.6086 127.823 55.7375C124.473 53.5282 121.396 52.5217 118.59 52.7179C115.925 52.9043 114.28 54.9224 113.657 58.7721C113.373 60.7655 113.357 63.5625 113.609 67.1631C113.857 70.7169 114.18 73.9836 114.576 76.9632C114.969 79.8961 115.738 82.8261 116.883 85.7534C119.782 85.5507 123.014 85.0663 126.578 84.3001C133.424 82.7407 138.364 81.8313 141.401 81.572ZM172.175 91.2614C169.054 97.0244 164.616 100.765 158.863 102.483C157.526 102.858 156.297 103.085 155.175 103.164C154.099 103.239 153.187 103.303 152.439 103.355C151.734 103.357 150.931 103.296 150.03 103.171C149.128 103.046 148.289 102.799 147.511 102.431C145.712 101.57 144.751 100.251 144.627 98.4741C144.381 97.6455 144.222 96.7168 144.15 95.6881C144.075 94.6126 144.21 93.1934 144.557 91.4306C144.903 89.6677 145.614 87.7384 146.69 85.6427C147.812 83.5437 149.202 81.5904 150.861 79.7827C154.307 75.9706 158.145 73.3997 162.375 72.0702C163.618 71.7013 164.754 71.4809 165.782 71.409C166.858 71.3338 167.821 71.3369 168.673 71.4183C171.385 71.2287 173.338 72.9482 174.531 76.5769C175.303 78.8724 175.882 82.1212 176.27 86.3231C176.701 90.475 177.044 93.6933 177.298 95.9781C177.595 98.2128 178.043 100.249 178.641 102.087L174.503 102.376C174.227 101.127 174.009 100.014 173.846 99.0388C173.684 98.0633 173.527 97.158 173.375 96.3229C173.003 94.3753 172.604 92.6881 172.175 91.2614ZM171.134 80.4092C170.944 77.697 169.517 76.4342 166.852 76.6205C166.521 76.5967 166.192 76.5962 165.865 76.6191C162.451 76.8578 158.965 78.7462 155.406 82.2843C153.734 83.9049 152.332 85.6945 151.2 87.6533C149.516 90.4494 148.748 92.8996 148.895 95.0038C149.088 97.7627 150.792 99.2882 154.008 99.5802C158.21 99.1924 162.097 96.994 165.67 92.985C167.192 91.2339 168.424 89.3622 169.365 87.3698C170.682 84.6933 171.271 82.3731 171.134 80.4092ZM188.018 89.0258L188.796 95.1035C189.057 98.8444 188.328 101.174 186.606 102.094C186.242 102.26 185.803 102.361 185.288 102.397C184.774 102.433 184.158 102.359 183.44 102.174L181.676 75.9363C181.411 72.1487 180.912 68.3774 180.18 64.6225C179.491 60.8175 179.014 57.0213 178.749 53.2336C178.644 51.7373 179.387 50.9335 180.977 50.8223L181.538 50.7831C181.865 50.7602 182.077 50.7689 182.174 50.8091C183.078 53.6592 183.791 57.1336 184.313 61.2322C185.465 70.3146 186.361 76.4076 187.001 79.5111C187.766 79.0347 189.46 77.718 192.081 75.5611C194.703 73.4043 196.814 71.6825 198.416 70.3957C200.014 69.0622 201.526 67.8288 202.95 66.6954C206.297 64.1589 208.415 62.8596 209.303 62.7975C210.051 62.7451 210.667 63.1485 211.15 64.0075C209.018 67.1169 205.483 70.6534 200.544 74.617C198.541 76.2137 196.538 77.8104 194.535 79.4071C192.576 80.9538 190.785 82.5592 189.163 84.2233C192.355 84.8459 195.386 85.5268 198.257 86.2658C201.125 86.9581 203.894 87.5867 206.565 88.1518C212.722 89.5069 217.982 90.1493 222.347 90.079C222.436 91.3415 222.376 92.168 222.168 92.5585C221.793 93.2425 220.954 93.6771 219.652 93.8622L219.09 93.9014C216.182 93.306 212.333 92.6824 207.541 92.0306C198.102 90.7641 191.594 89.7625 188.018 89.0258ZM240.051 93.2815C244.166 92.9938 250.231 90.6901 258.246 86.3705C258.761 86.3345 259.195 86.4921 259.548 86.8433C259.898 87.1477 260.09 87.5338 260.123 88.0014C258.475 91.3119 255.071 94.0404 249.911 96.1868C244.751 98.3332 239.839 98.9821 235.175 98.1335C229.89 97.1404 226.529 94.4386 225.093 90.028C224.937 89.1461 224.807 87.9569 224.702 86.4606C224.598 84.9643 224.834 82.9741 225.413 80.4903C226.034 77.9564 227.203 75.5251 228.92 73.1966C230.637 70.868 232.714 68.9842 235.15 67.5451C237.587 66.106 240.232 65.2867 243.084 65.0872C245.796 64.8976 248.901 65.6202 252.399 67.2552C254.051 68.0325 255.384 68.9496 256.397 70.0065C257.411 71.0633 257.959 72.1763 258.041 73.3453C258.063 73.6726 258.063 74.0016 258.039 74.3322C258.145 77.1911 256.891 79.0879 254.278 80.0224C253.132 80.4315 251.788 80.69 250.245 80.7979L240.115 81.0833C236.748 81.3187 234.227 82.2234 232.551 83.7972C231.578 84.6641 230.937 85.9072 230.627 87.5265C232.094 91.7 235.235 93.6183 240.051 93.2815ZM251.021 70.7348C249.94 70.0586 248.827 69.5961 247.682 69.3472C246.537 69.0984 245.59 69.0001 244.842 69.0524C244.094 69.1047 242.896 69.4469 241.248 70.079C239.598 70.6643 238.139 71.3067 236.872 72.0062C233.75 73.7281 232.247 75.4074 232.361 77.044C236.125 77.1098 238.942 77.0773 240.812 76.9465C246.003 76.5835 249.479 75.894 251.24 74.8781C252.33 74.332 252.85 73.7082 252.801 73.0068C252.742 72.1651 252.149 71.4078 251.021 70.7348ZM316.425 74.6899C321.569 74.3302 324.232 75.4597 324.415 78.0783C324.552 80.0423 323.287 82.4333 320.617 85.2513C316.633 89.43 311.123 92.9402 304.085 95.7818C303.758 95.8047 303.361 95.5035 302.894 94.8783C302.474 94.2498 302.136 93.7801 301.879 93.4691C301.666 93.1081 301.509 92.8841 301.409 92.7971C306.663 90.6442 310.931 88.1842 314.215 85.4171C316.435 83.5702 317.508 82.109 317.432 81.0335C317.357 79.958 315.94 79.5168 313.181 79.7097C310.422 79.9026 306.423 80.8401 301.184 82.5221C298.746 82.5987 296.581 81.8807 294.69 80.3684C293.046 79.0267 292.173 77.631 292.071 76.1815C291.967 74.6851 292.293 73.2996 293.049 72.025C293.803 70.7036 294.843 69.4561 296.171 68.2825C297.498 67.1089 299.066 66.0125 300.875 64.9932C305.304 62.475 309.973 61.0443 314.883 60.7009C316.332 60.5996 317.745 60.6417 319.121 60.8275C320.243 60.749 320.932 61.1942 321.188 62.1631C321.443 63.132 321.65 64.7387 321.807 66.9832C318.96 65.9136 315.806 65.4998 312.346 65.7418C308.044 66.0426 304.55 67.1562 301.866 69.0825C299.084 70.9686 297.741 73.271 297.838 75.9897C297.929 77.299 298.933 77.8866 300.851 77.7525L305.932 76.8334C310.262 75.5908 313.76 74.8763 316.425 74.6899ZM362.652 88.6555C362.287 89.4799 361.216 89.9542 359.439 90.0785C357.709 90.1994 356.8 89.6287 356.711 88.3661C356.326 82.8483 355.944 79.0689 355.566 77.0278C354.828 72.5214 353.77 70.152 352.391 69.9195C348.978 69.5002 346.196 69.3658 344.045 69.5162C341.941 69.6634 340.233 70.4407 338.922 71.8481C337.654 73.2054 336.751 75.4066 336.212 78.4516C335.717 81.4466 335.493 85.6443 335.542 91.0447L330.141 91.4223C330.048 88.7504 329.922 86.2688 329.762 83.9775C329.601 81.6863 329.365 78.9774 329.052 75.851C328.736 72.6778 328.378 69.2257 327.976 65.4946C327.441 61.209 327.071 57.5932 326.865 54.6472C326.656 51.6545 326.651 48.906 326.852 46.4015C327.258 45.4803 327.905 44.9887 328.793 44.9266C329.868 44.8513 330.738 45.19 331.401 45.9424C332.062 46.648 332.436 47.3032 332.526 47.9078L332.984 59.5056C333.288 63.8544 333.726 67.0896 334.297 69.2111C338.31 66.1112 342.56 64.4043 347.049 64.0904C348.499 63.989 350.05 63.998 351.703 64.1174C355.338 65.6958 357.765 67.4761 358.984 69.4584C359.574 70.4979 359.981 71.6207 360.206 72.8267C360.432 74.0326 360.622 75.4055 360.776 76.9454C361.43 82.2565 362.055 86.1599 362.652 88.6555ZM366.138 76.0066C365.752 70.4888 367.826 65.8798 372.36 62.1795C375.962 59.2492 380.408 57.3172 385.7 56.3833C385.98 56.3637 386.635 56.3179 387.663 56.246C388.692 56.174 390.093 56.3815 391.866 56.8684C395.792 57.9096 398.572 60.0411 400.207 63.2631C400.86 64.5331 401.219 65.6358 401.284 66.571C401.346 67.4594 401.367 68.0924 401.346 68.4697C401.755 74.3148 399.856 79.0761 395.649 82.7535C391.75 86.1274 386.714 88.0302 380.542 88.4618C376.1 88.7725 372.661 87.9792 370.226 86.0819C367.837 84.1814 366.475 80.8229 366.138 76.0066ZM371.095 77.3515C371.298 80.2507 372.207 82.1607 373.822 83.0816C375.043 83.748 377.033 83.9847 379.792 83.7918C382.551 83.5989 384.968 83.2184 387.043 82.6504C389.118 82.0825 390.937 81.2269 392.502 80.0837C395.852 77.5939 397.362 73.9876 397.032 69.2648C396.836 66.4591 395.927 64.2202 394.307 62.5479C392.536 60.7452 390.318 59.937 387.653 60.1233C385.852 60.5782 384.029 61.0581 382.185 61.5629C380.388 62.0646 378.708 62.9103 377.147 64.1003C373.753 66.6401 371.736 71.0572 371.095 77.3515ZM410.484 58.0334C416.69 55.391 422.108 53.9079 426.737 53.5842C432.629 53.1722 436.665 54.4406 438.844 57.3895C439.834 58.7769 440.388 60.3124 440.506 61.9958C440.669 64.3338 440.089 66.7943 438.766 69.3773C437.49 71.9569 435.707 74.3372 433.416 76.5179C428.081 81.5429 421.408 84.8993 413.397 86.5873C413.433 87.1016 413.491 87.92 413.569 89.0422C413.698 90.208 413.811 91.4923 413.909 92.8951C414.054 94.2946 414.182 95.7893 414.293 97.3792C414.451 98.9658 414.604 100.482 414.752 101.929C415.144 105.519 415.382 107.57 415.464 108.081C415.594 108.589 415.67 109.007 415.693 109.334C415.775 110.503 415.461 111.394 414.752 112.008C414.046 112.668 413.086 113.041 411.87 113.126C411.636 113.142 411.402 113.158 411.168 113.175L406.103 56.8596C406.481 56.2223 407.023 55.9025 407.727 55.9002C408.432 55.8979 409.006 56.0457 409.45 56.3436C409.894 56.6415 410.238 57.2048 410.484 58.0334ZM431.137 59.0562C429.539 58.3691 427.851 58.0878 426.074 58.212C424.344 58.333 422.625 58.6176 420.918 59.0659C417.042 60.0888 414.259 61.9515 412.568 64.6542C411.812 65.9288 411.496 67.4546 411.62 69.2315C411.633 69.4185 411.646 69.6056 411.659 69.7926L412.508 81.927C421.99 79.1025 428.608 75.6324 432.361 71.5168C434.545 69.1555 435.556 66.8059 435.392 64.4678C435.219 61.9895 433.801 60.1856 431.137 59.0562Z" fill="white"/>
</g>
<defs>
<filter id="filter0_d" x="0.940063" y="3.14655" width="606.578" height="151.75" filterUnits="userSpaceOnUse" color-interpolation-filters="sRGB">
<feFlood flood-opacity="0" result="BackgroundImageFix"/>
<feColorMatrix in="SourceAlpha" type="matrix" values="0 0 0 0 0 0 0 0 0 0 0 0 0 0 0 0 0 0 127 0" result="hardAlpha"/>
<feOffset dy="4"/>
<feGaussianBlur stdDeviation="2"/>
<feComposite in2="hardAlpha" operator="out"/>
<feColorMatrix type="matrix" values="0 0 0 0 0 0 0 0 0 0 0 0 0 0 0 0 0 0 0.25 0"/>
<feBlend mode="normal" in2="BackgroundImageFix" result="effect1_dropShadow"/>
<feBlend mode="normal" in="SourceGraphic" in2="effect1_dropShadow" result="shape"/>
</filter>
</defs>
</svg>
